<svg width="24" height="24" viewBox="0 0 24 24" fill="none" xmlns="http://www.w3.org/2000/svg">
<g id="Iconly/Light/Delete">
<g id="Delete">
<path id="Stroke 1" d="M19.3248 9.46875C19.3248 9.46875 18.7818 16.2037 18.4668 19.0407C18.3168 20.3957 17.4798 21.1898 16.1088 21.2148C13.4998 21.2618 10.8878 21.2648 8.27979 21.2098C6.96079 21.1828 6.13779 20.3788 5.99079 19.0478C5.67379 16.1858 5.13379 9.46875 5.13379 9.46875" stroke="#1A162E" stroke-width="1.5" stroke-linecap="round" stroke-linejoin="round"/>
<path id="Stroke 3" d="M20.708 6.24023H3.75" stroke="#1A162E" stroke-width="1.5" stroke-linecap="round" stroke-linejoin="round"/>
<path id="Stroke 5" d="M17.4404 6.23998C16.6554 6.23998 15.9794 5.68498 15.8254 4.91598L15.5824 3.69998C15.4324 3.13898 14.9244 2.75098 14.3454 2.75098H10.1124C9.5334 2.75098 9.0254 3.13898 8.8754 3.69998L8.6324 4.91598C8.4784 5.68498 7.8024 6.23998 7.0174 6.23998" stroke="#1A162E" stroke-width="1.5" stroke-linecap="round" stroke-linejoin="round"/>
</g>
</g>
</svg>
